<svg width="281" height="54" viewBox="0 0 281 54" fill="none" xmlns="http://www.w3.org/2000/svg">
<g clip-path="url(#clip0_1013_4355)">
<path d="M113.177 0.929688V29.6551H92.3745V32.9442C92.2584 37.9681 94.0164 42.8553 97.3058 46.6531C100.457 50.49 104.953 52.978 109.876 53.6087C110.959 53.79 112.053 53.8892 113.15 53.9052C114.312 53.893 115.47 53.7848 116.613 53.5817C121.033 52.9162 125.113 50.8185 128.227 47.6102C130.299 45.5134 131.878 42.9806 132.848 40.1963C133.721 37.2909 134.126 34.265 134.048 31.2322V0.929688H113.177Z" fill="#001F39"/>
<path d="M26.9474 30.6797C26.2234 30.6717 25.5179 30.4501 24.9192 30.0427C24.3206 29.6352 23.8554 29.0601 23.5821 28.3894C23.3087 27.7186 23.2393 26.9821 23.3825 26.272C23.5257 25.562 23.8752 24.91 24.3871 24.3978C24.8991 23.8856 25.5507 23.5359 26.2605 23.3926C26.9702 23.2494 27.7064 23.3188 28.3768 23.5923C29.0472 23.8658 29.6221 24.3312 30.0293 24.9301C30.4365 25.5291 30.658 26.2349 30.666 26.9593C30.6714 27.4493 30.5789 27.9356 30.394 28.3894C30.209 28.8432 29.9353 29.2555 29.5889 29.6021C29.2425 29.9486 28.8304 30.2225 28.3768 30.4075C27.9232 30.5926 27.4372 30.6851 26.9474 30.6797ZM82.8483 2.80349C80.4096 1.34767 74.7508 0.336691 71.2073 0.350171H49.3805V11.9428C46.1553 7.15341 41.4781 3.52674 36.0378 1.59684C30.5975 -0.333055 24.6815 -0.46418 19.1611 1.22278C13.6406 2.90973 8.80753 6.32561 5.37348 10.9674C1.93944 15.6092 0.0859375 21.2315 0.0859375 27.0064C0.0859375 32.7814 1.93944 38.4037 5.37348 43.0455C8.80753 47.6873 13.6406 51.1031 19.1611 52.7901C24.6815 54.4771 30.5975 54.3459 36.0378 52.416C41.4781 50.4861 46.1553 46.8595 49.3805 42.0701V52.2608H71.9887C72.6759 52.2608 73.3361 52.2608 73.9963 52.2608C76.6366 52.1439 79.2359 51.5645 81.6761 50.5489C83.7907 49.4777 85.6388 47.9463 87.0844 46.067C88.5301 44.1878 89.5367 42.0084 90.0304 39.689C90.524 37.3696 90.4921 34.9691 89.9371 32.6636C89.3821 30.3581 88.3179 28.2063 86.8229 26.3661C88.2572 24.615 89.3 22.5767 89.881 20.3885C90.462 18.2003 90.5678 15.913 90.1912 13.6805C89.8146 11.4481 88.9644 9.32216 87.6978 7.44595C86.4312 5.56974 84.7776 3.98674 82.8483 2.80349Z" fill="#001F39"/>
<path d="M174.911 30.3703H160.09C160.124 31.2216 160.33 32.0572 160.696 32.8264C161.062 33.5957 161.58 34.2826 162.219 34.8456C163.564 36.0025 165.297 36.609 167.069 36.5441C168.115 36.5599 169.152 36.3579 170.114 35.951C171.015 35.5532 171.816 34.9591 172.459 34.2121L173.806 35.7757C173.008 36.7194 171.997 37.4588 170.855 37.9325C169.451 38.4854 167.946 38.734 166.438 38.662C164.931 38.5899 163.456 38.1989 162.111 37.5146C160.732 36.7636 159.589 35.6434 158.81 34.2795C158.02 32.8681 157.616 31.2734 157.638 29.6559C157.611 28.03 158 26.4243 158.77 24.9919C159.485 23.6551 160.558 22.5442 161.869 21.7837C163.221 21.0093 164.757 20.6135 166.315 20.6379C167.865 20.6117 169.392 21.0078 170.734 21.7837C172.032 22.5343 173.095 23.631 173.806 24.9515C174.57 26.3904 174.954 28.0001 174.924 29.629L174.911 30.3703ZM162.03 24.264C160.855 25.3862 160.152 26.9143 160.063 28.5371H172.647C172.552 26.9159 171.85 25.3902 170.68 24.264C169.485 23.212 167.947 22.6317 166.355 22.6317C164.763 22.6317 163.226 23.212 162.03 24.264Z" fill="#001F39"/>
<path d="M180.462 38.053C179.341 37.7342 178.292 37.1983 177.377 36.4759L178.455 34.5887C179.302 35.2234 180.249 35.711 181.257 36.0311C182.393 36.3991 183.58 36.5856 184.774 36.5838C186.017 36.6719 187.26 36.4055 188.358 35.8154C188.727 35.5959 189.031 35.2812 189.237 34.9042C189.443 34.5272 189.544 34.1017 189.53 33.6721C189.543 33.384 189.492 33.0966 189.38 32.8308C189.268 32.5649 189.098 32.3274 188.883 32.1354C188.411 31.7439 187.859 31.4588 187.266 31.2997C186.41 31.0656 185.542 30.8767 184.666 30.7335C183.492 30.5304 182.331 30.2558 181.19 29.9113C180.328 29.6403 179.552 29.1476 178.94 28.4824C178.293 27.6966 177.965 26.6953 178.024 25.6786C178.013 24.9658 178.176 24.261 178.497 23.6247C178.819 22.9885 179.29 22.4398 179.87 22.0256C181.393 20.9995 183.21 20.5022 185.043 20.6102C186.204 20.61 187.359 20.7641 188.479 21.0685C189.487 21.3065 190.448 21.712 191.322 22.2682L190.271 24.1824C188.726 23.1507 186.9 22.6233 185.043 22.6726C183.834 22.5899 182.628 22.8716 181.581 23.4814C181.218 23.7049 180.919 24.0185 180.714 24.3918C180.509 24.765 180.403 25.1852 180.408 25.6112C180.397 25.9123 180.45 26.2124 180.564 26.4913C180.678 26.7703 180.85 27.0217 181.069 27.2288C181.54 27.6497 182.103 27.9544 182.712 28.1185C183.6 28.3628 184.499 28.5607 185.407 28.7116C186.558 28.9149 187.696 29.1849 188.816 29.5203C189.653 29.7711 190.409 30.2357 191.012 30.8683C191.655 31.6143 191.983 32.5808 191.928 33.5643C191.953 34.3043 191.786 35.0382 191.443 35.6947C191.101 36.3512 190.595 36.9082 189.975 37.3117C188.357 38.3 186.477 38.7704 184.585 38.6596C183.188 38.6704 181.797 38.4658 180.462 38.053Z" fill="#001F39"/>
<path d="M205.698 37.4199C205.22 37.8543 204.649 38.1725 204.028 38.3501C203.357 38.5657 202.657 38.6749 201.953 38.6736C201.253 38.7205 200.551 38.6253 199.888 38.3936C199.226 38.162 198.618 37.7987 198.1 37.3256C197.629 36.8137 197.267 36.2118 197.036 35.5561C196.804 34.9005 196.708 34.2047 196.752 33.5108V22.727H193.586V20.705H196.712V16.8633H199.11V20.7455H204.499V22.7674H199.11V33.376C199.052 34.2531 199.337 35.1184 199.905 35.7889C200.206 36.0771 200.564 36.2992 200.957 36.4408C201.349 36.5824 201.766 36.6404 202.182 36.6112C202.668 36.6174 203.151 36.5398 203.61 36.382C204.048 36.2342 204.455 36.0056 204.809 35.708L205.698 37.4199Z" fill="#001F39"/>
<path d="M226.057 20.7446V38.511H223.753V35.2624C223.137 36.3173 222.236 37.177 221.153 37.7426C219.99 38.352 218.693 38.658 217.38 38.6323C216.384 38.6879 215.385 38.5449 214.444 38.2117C213.503 37.8785 212.637 37.3617 211.897 36.6912C211.188 35.933 210.644 35.0362 210.298 34.0572C209.953 33.0782 209.813 32.0382 209.889 31.0027V20.7446H212.274V30.8005C212.155 32.3413 212.638 33.8682 213.621 35.0602C214.142 35.5645 214.762 35.9546 215.442 36.2053C216.121 36.456 216.846 36.5618 217.569 36.516C218.387 36.5586 219.204 36.4281 219.968 36.1332C220.732 35.8382 221.425 35.3853 222.002 34.804C223.159 33.5035 223.755 31.7977 223.659 30.0592V20.7446H226.057ZM220.412 13.7891H223.659L218.189 17.9678H215.831L220.412 13.7891Z" fill="#001F39"/>
<path d="M248.975 13.4785V38.5105H246.684V35.0462C246.003 36.1801 245.03 37.111 243.868 37.7421C242.622 38.3919 241.231 38.7164 239.826 38.6857C238.243 38.7102 236.681 38.3149 235.299 37.5399C233.961 36.7924 232.863 35.6798 232.133 34.3317C231.346 32.8952 230.947 31.2785 230.974 29.6408C230.945 27.9985 231.344 26.3768 232.133 24.9363C232.867 23.5982 233.965 22.4953 235.299 21.7551C236.684 20.9908 238.244 20.6005 239.826 20.6228C241.177 20.6021 242.512 20.9073 243.72 21.5125C244.881 22.1121 245.863 23.01 246.563 24.1141V13.4785H248.975ZM243.383 35.7067C244.39 35.1358 245.212 34.2894 245.754 33.2668C246.321 32.1471 246.617 30.9095 246.617 29.6543C246.617 28.399 246.321 27.1614 245.754 26.0417C245.213 25.0155 244.39 24.1646 243.383 23.5884C242.363 23.0047 241.204 22.7067 240.028 22.7256C238.84 22.7034 237.667 23.0014 236.633 23.5884C235.63 24.1649 234.812 25.016 234.275 26.0417C233.708 27.1614 233.413 28.399 233.413 29.6543C233.413 30.9095 233.708 32.1471 234.275 33.2668C234.812 34.2884 235.631 35.135 236.633 35.7067C237.667 36.2936 238.84 36.5916 240.028 36.5694C241.206 36.5801 242.365 36.2728 243.383 35.6797V35.7067Z" fill="#001F39"/>
<path d="M255.616 16.3501C255.454 16.1929 255.326 16.0041 255.241 15.7954C255.155 15.5867 255.113 15.3625 255.118 15.1369C255.116 14.9157 255.159 14.6965 255.245 14.4925C255.331 14.2886 255.457 14.1042 255.616 13.9507C255.78 13.7863 255.975 13.6573 256.191 13.5715C256.406 13.4857 256.637 13.445 256.869 13.4519C257.1 13.4456 257.329 13.4852 257.544 13.5685C257.759 13.6518 257.956 13.7772 258.122 13.9372C258.282 14.0846 258.409 14.2641 258.495 14.4638C258.58 14.6635 258.623 14.8791 258.621 15.0965C258.62 15.4444 258.516 15.7844 258.323 16.0737C258.13 16.3631 257.856 16.5889 257.535 16.7228C257.214 16.8567 256.861 16.8928 256.519 16.8265C256.178 16.7602 255.864 16.5944 255.616 16.3501ZM255.616 20.7445H258.014V38.5108H255.616V20.7445Z" fill="#001F39"/>
<path d="M267.366 37.5142C266.012 36.7527 264.894 35.6335 264.132 34.2791C263.327 32.8635 262.918 31.2571 262.947 29.6285C262.918 27.9957 263.327 26.3851 264.132 24.9645C264.891 23.6149 266.011 22.5038 267.366 21.7564C268.793 21.0043 270.381 20.6113 271.994 20.6113C273.607 20.6113 275.195 21.0043 276.622 21.7564C277.974 22.504 279.089 23.6154 279.842 24.9645C280.633 26.3899 281.032 27.9989 281.001 29.6285C281.033 31.254 280.633 32.8587 279.842 34.2791C279.086 35.633 277.972 36.7524 276.622 37.5142C275.198 38.2753 273.609 38.6735 271.994 38.6735C270.38 38.6735 268.79 38.2753 267.366 37.5142ZM275.383 35.681C276.387 35.1165 277.203 34.2677 277.727 33.2411C278.287 32.1192 278.578 30.8825 278.578 29.6285C278.578 28.3746 278.287 27.1379 277.727 26.016C277.203 24.9858 276.388 24.1326 275.383 23.5626C274.348 23.0034 273.19 22.7106 272.014 22.7106C270.838 22.7106 269.681 23.0034 268.646 23.5626C267.639 24.1389 266.817 24.9898 266.275 26.016C265.708 27.1357 265.412 28.3733 265.412 29.6285C265.412 30.8838 265.708 32.1214 266.275 33.2411C266.817 34.2637 267.64 35.1101 268.646 35.681C269.681 36.2402 270.838 36.533 272.014 36.533C273.19 36.533 274.348 36.2402 275.383 35.681Z" fill="#001F39"/>
</g>
<defs>
<clipPath id="clip0_1013_4355">
<rect width="281" height="54" fill="white"/>
</clipPath>
</defs>
</svg>
